<?xml version="1.0" encoding="utf-8"?>
<!-- Generator: Adobe Illustrator 15.0.0, SVG Export Plug-In . SVG Version: 6.00 Build 0)  -->
<!DOCTYPE svg PUBLIC "-//W3C//DTD SVG 1.1//EN" "http://www.w3.org/Graphics/SVG/1.1/DTD/svg11.dtd">
<svg version="1.1" id="レイヤー_1" xmlns="http://www.w3.org/2000/svg" xmlns:xlink="http://www.w3.org/1999/xlink" x="0px"
	 y="0px" width="1036.447px" height="634.3px" viewBox="0 0 1036.447 634.3" enable-background="new 0 0 1036.447 634.3"
	 xml:space="preserve">
<g>
	<g>
		<path fill="#6A3906" d="M3211.924-770.249c4.522-10.819,4.38-20.464-0.332-22.435c-4.715-1.97-11.68,4.703-16.205,15.525
			c-0.404,0.964-0.75,1.907-1.083,2.845l-72.011,189.671c-0.569,1.451-0.188,2.957,0.858,3.4c1.049,0.438,2.384-0.356,3.019-1.786
			l84.469-184.408C3211.08-768.339,3211.517-769.271,3211.924-770.249 M3209.361-787.357c4.368,1.825,1.472,10.586-0.688,15.756
			c-2.983,7.147-9.697,21.365-14.065,19.54c-4.365-1.826,1.039-16.593,4.024-23.742
			C3200.787-780.965,3206.004-788.763,3209.361-787.357"/>
	</g>
</g>
<g>
	<g>
		<path fill="#3E3A39" d="M122.887,476.076c4.575,7.318,8.463,11.895,11.666,14.867c10.522,9.379,25.391,14.641,41.631,14.641
			c28.593,0,46.664-15.783,46.664-40.488c0-21.045-12.352-32.254-45.749-41.631c-35.456-9.836-48.952-22.418-48.952-45.062
			c0-25.391,19.215-42.089,49.181-42.089c9.836,0,18.985,2.06,27.221,6.177c6.862,3.43,13.039,8.233,19.214,13.952l-4.574,4.575
			c-5.033-6.178-10.751-10.979-17.385-14.411c-7.32-3.89-15.554-5.719-24.704-5.719c-26.992,0-43.919,14.411-43.919,37.515
			c0,20.814,10.522,30.194,47.121,40.945c34.769,10.293,47.579,22.416,47.579,45.748c0,27.221-20.815,45.291-52.153,45.291
			c-17.842,0-33.168-5.488-44.604-15.781c-4.805-4.119-8.921-9.15-12.581-14.869L122.887,476.076z"/>
		<path fill="#3E3A39" d="M369.93,491.4c2.059,5.719,4.575,11.438,7.32,17.156h-7.32c-1.145-5.719-3.432-11.438-5.489-17.156
			l-18.986-50.781h-73.197L253.271,491.4c-2.059,5.719-4.117,11.438-5.49,17.156h-7.318c2.744-5.719,5.261-11.438,7.318-17.156
			l51.01-136.104c2.061-5.719,4.575-11.438,5.948-17.155h8.234c1.372,5.719,3.889,11.438,5.947,17.155L369.93,491.4z
			 M343.396,435.816l-34.54-92.186l-34.77,92.186H343.396z"/>
		<path fill="#3E3A39" d="M460.052,421.634c27.449,2.518,42.316,16.926,42.316,42.316c0,27.449-19.899,44.605-51.925,44.605h-34.998
			c-8.233,0-12.81,0.229-17.612,0.688c0.456-4.805,0.687-9.379,0.687-17.156V354.611c0-8.006-0.229-12.352-0.687-17.154
			c5.719,0.686,11.895,0.686,17.612,0.686h30.194c29.966,0,46.664,14.184,46.664,40.26c0,22.417-11.896,37.973-32.253,42.547
			L460.052,421.634L460.052,421.634z M403.78,342.945v76.401h42.089c25.392,0,40.945-14.183,40.945-40.945
			c0-22.875-14.182-35.456-42.089-35.456H403.78z M450.444,503.753c30.423,0,46.436-16.471,46.436-39.803
			c0-24.246-14.183-40.029-51.926-40.029H403.78v79.832H450.444z"/>
		<path fill="#3E3A39" d="M673.467,422.548c0,54.213-29.508,88.295-76.4,88.295c-47.351,0-76.4-33.168-76.4-86.691
			c0-54.214,29.509-88.525,76.4-88.525C644.416,335.626,673.467,368.794,673.467,422.548z M668.205,422.548
			c0-51.01-26.533-82.118-71.14-82.118c-44.377,0-71.14,31.565-71.14,83.722c0,51.236,26.533,81.889,71.14,81.889
			C641.442,506.041,668.205,474.703,668.205,422.548z"/>
		<path fill="#3E3A39" d="M746.436,439.933V491.4c0,5.719,0,11.438,0.686,17.156h-6.633c0.687-5.719,0.687-11.438,0.687-17.156
			v-51.926l-50.781-84.178c-3.431-5.719-6.862-11.438-11.208-17.155h7.777c2.743,5.719,6.176,11.438,9.605,17.155l47.352,78.918
			l44.375-78.918c3.203-5.719,6.405-11.438,9.15-17.155h7.777c-4.117,5.719-7.549,11.438-10.751,17.155L746.436,439.933z"/>
		<path fill="#3E3A39" d="M911.813,491.4c2.059,5.719,4.575,11.438,7.32,17.156h-7.32c-1.144-5.719-3.431-11.438-5.489-17.156
			l-18.985-50.781H814.14L795.154,491.4c-2.059,5.719-4.117,11.438-5.49,17.156h-7.318c2.745-5.719,5.261-11.438,7.318-17.156
			l51.011-136.104c2.06-5.719,4.574-11.438,5.947-17.155h8.234c1.372,5.719,3.889,11.438,5.947,17.155L911.813,491.4z
			 M885.279,435.816l-34.54-92.186l-34.77,92.186H885.279z"/>
	</g>
	<g>
		<g>
			<path fill="#3E3A39" d="M583.531,108.47c4.987-11.929,6.021-22.064,2.404-23.577c-3.618-1.512-10.106,6.344-15.095,18.275
				c-0.445,1.062-0.841,2.097-1.225,3.124L488.15,314.545c-0.638,1.596-0.507,3.135,0.298,3.476c0.805,0.336,1.989-0.659,2.68-2.239
				l91.02-204.197C582.615,110.58,583.082,109.547,583.531,108.47 M583.479,90.765c3.352,1.4-0.061,10.97-2.441,16.669
				c-3.289,7.88-10.473,23.647-13.823,22.247c-3.351-1.401,2.828-17.591,6.119-25.473C575.709,98.517,580.901,89.686,583.479,90.765
				"/>
		</g>
	</g>
	<g>
		<g>
			<path fill="#3E3A39" d="M497.282,168.088l-102.478,47.807v0.687l102.478,48.036v5.719l-110.939-52.153v-3.889l110.939-51.925
				V168.088z"/>
			<path fill="#3E3A39" d="M679.135,214.294v3.889l-110.94,52.153v-5.719l102.479-48.036v-0.687l-102.479-47.807v-5.719
				L679.135,214.294z"/>
		</g>
	</g>
</g>
</svg>
